<svg width="24" height="26" viewBox="0 0 24 26" fill="none" xmlns="http://www.w3.org/2000/svg">
<path d="M11.9237 13C15.1453 13 17.757 10.3884 17.757 7.16671C17.757 3.94505 15.1453 1.33337 11.9237 1.33337C8.702 1.33337 6.09033 3.94505 6.09033 7.16671C6.09033 10.3884 8.702 13 11.9237 13Z" stroke="black" stroke-width="2"/>
<path
        d="M17.7571 15.3334H18.1678C19.0207 15.3336 19.8442 15.6453 20.4836 16.2099C21.1229 16.7744 21.534 17.553 21.6398 18.3994L22.096 22.044C22.137 22.3724 22.1077 22.7057 22.0101 23.0218C21.9125 23.338 21.7487 23.6298 21.5297 23.8778C21.3107 24.1258 21.0414 24.3244 20.7398 24.4605C20.4382 24.5965 20.111 24.6668 19.7801 24.6667H4.06748C3.7366 24.6668 3.40948 24.5965 3.10784 24.4605C2.8062 24.3244 2.53694 24.1258 2.31792 23.8778C2.09891 23.6298 1.93515 23.338 1.83752 23.0218C1.73989 22.7057 1.71062 22.3724 1.75165 22.044L2.20665 18.3994C2.31246 17.5526 2.72397 16.7737 3.36379 16.2091C4.00361 15.6445 4.82766 15.333 5.68098 15.3334H6.09048" stroke="black" stroke-width="2" stroke-linecap="round" stroke-linejoin="round"/>
</svg>
