<svg width="891" height="907" viewBox="0 0 891 907" fill="none" xmlns="http://www.w3.org/2000/svg">
<g opacity="0.03">
<path d="M565.019 706.832C549.374 710.307 533.531 710.569 517.904 707.625C486.833 701.671 464.893 684.608 451.981 671.346L455.387 667.833C467.799 680.578 488.881 696.986 518.725 702.69C533.701 705.549 548.929 705.298 563.903 701.961L565.082 706.863L565.019 706.832Z" fill="#FFDE00"/>
<path d="M598.633 482.997L593.822 483.522C586.608 429.965 567.478 377.814 538.472 332.627C496.701 267.551 443.56 229.978 406.374 209.885L408.509 205.438C446.26 225.808 500.117 263.927 542.499 329.965C571.949 375.797 591.357 428.708 598.651 483.044L598.633 482.997Z" fill="#FFDE00"/>
<path d="M610.835 761.712C602.547 764.753 593.39 766.552 583.276 766.444C394.245 764.528 254.436 618.611 253.173 617.139C252.541 616.403 186.488 542.112 178.009 454.768C177.784 452.324 177.856 449.985 178.084 448.072C165.779 459.739 157.275 470.925 150.657 479.644C141.626 491.507 135.637 499.405 127.738 497.731C111.803 494.434 103.687 450.195 105.282 411.159C109.423 309.345 182.848 214.706 248.776 190.2C255.471 187.744 315.089 166.037 341.887 172.609C346.777 173.827 351.766 174.47 354.042 174.335C353.607 173.15 353.2 171.9 352.825 171.017C351.905 168.934 351.266 168.54 350.916 165.532C350.148 158.931 347.815 151.021 345.569 143.348C340.722 126.895 335.729 109.904 347.023 105.762C348.981 105.043 351.455 103.759 354.112 102.409C361.204 98.7851 369.219 94.716 374.708 97.0045C376.778 97.8586 378.345 99.5961 379.232 102.013C383.77 114.385 384.676 122.065 385.754 130.92C387.157 142.774 388.78 156.214 399.682 185.934C400.447 188.019 401.469 189.257 402.899 189.916C407.847 192.135 417.884 187.807 430.631 182.271C442.182 177.281 456.578 171.032 473.104 167.068C474.004 166.845 561.94 147.119 650.079 194.432C688.229 214.909 712.594 240.766 720.624 249.275L721.738 250.48C734.617 264.04 745.869 280.348 757.242 301.774C832.019 442.668 772.006 624.293 673.503 711.836C669.757 715.146 665.725 719.368 661.427 723.848C648.736 737 632.695 753.694 610.79 761.729L610.835 761.712ZM184.707 442.04C184.053 443.356 183.767 444.267 183.767 444.267C183.767 444.267 182.3 449 182.815 454.35C191.113 539.931 256.007 613.034 256.684 613.753C282.071 642.677 419.859 759.704 583.172 761.373C617.972 761.73 640.115 738.711 657.96 720.173C662.304 715.675 666.409 711.373 670.303 707.901C767.409 621.623 826.612 442.715 753.005 304.027C741.851 283.058 730.83 267.096 718.289 253.896L717.175 252.691C708.468 243.462 685.36 218.92 647.92 198.827C561.451 152.407 475.179 171.738 474.325 171.944C458.18 175.822 443.994 181.94 432.625 186.864C419.879 192.4 410.297 196.56 403.506 195.232C403.933 199.916 402.253 211.395 400.222 222.197C396.373 251.142 386.038 297.902 354.449 333.904C345.038 345.154 335.194 353.389 325.245 360.212C302.784 376.732 275.661 390.823 245.79 406.297C237.464 410.642 230.831 413.828 224.982 416.618C211.278 423.205 203.03 427.199 190.395 437.265C188.442 438.842 186.58 440.385 184.735 441.976L184.707 442.04Z" fill="#FFDE00"/>
<path d="M180.778 358.279L176.387 356.01C186.032 335.336 198.297 316.18 212.822 299.105C235.276 272.708 262.593 251.695 294.06 236.65L296.212 241.249C265.364 256.014 238.523 276.637 216.492 302.501C202.261 319.252 190.21 338.007 180.778 358.279Z" fill="#FFDE00"/>
<path d="M566.269 710.238C550.766 714.299 534.943 715.155 519.217 712.8C487.944 708.017 465.379 691.79 451.978 679.023L455.249 675.385C468.132 687.654 489.814 703.259 519.852 707.838C534.925 710.132 550.133 709.309 564.97 705.412L566.333 710.266L566.269 710.238Z" fill="#343434"/>
<path d="M591.452 485.298L586.664 486.004C577.444 432.755 556.369 381.36 525.685 337.295C481.5 273.833 426.985 238.282 389.071 219.6L391.037 215.076C429.527 234.014 484.778 270.083 529.609 334.483C560.76 379.177 582.142 431.321 591.471 485.345L591.452 485.298Z" fill="#343434"/>
<path d="M169.208 376.363L164.734 374.261C173.596 353.239 185.133 333.636 199.006 316.027C220.453 288.806 246.962 266.781 277.841 250.565L280.164 255.08C249.893 270.993 223.845 292.609 202.802 319.282C189.21 336.557 177.871 355.751 169.208 376.363Z" fill="#343434"/>
</g>
</svg>
