<svg width="18" height="18" viewBox="0 0 18 18" fill="none" xmlns="http://www.w3.org/2000/svg">
<path d="M8.16797 11.5003H9.83464V13.167H8.16797V11.5003ZM8.16797 4.83366H9.83464V9.83366H8.16797V4.83366ZM8.99297 0.666992C4.39297 0.666992 0.667969 4.40033 0.667969 9.00033C0.667969 13.6003 4.39297 17.3337 8.99297 17.3337C13.6013 17.3337 17.3346 13.6003 17.3346 9.00033C17.3346 4.40033 13.6013 0.666992 8.99297 0.666992ZM9.0013 15.667C5.31797 15.667 2.33464 12.6837 2.33464 9.00033C2.33464 5.31699 5.31797 2.33366 9.0013 2.33366C12.6846 2.33366 15.668 5.31699 15.668 9.00033C15.668 12.6837 12.6846 15.667 9.0013 15.667Z" fill="#F40A0A"/>
</svg>
