<svg width="30" height="30" viewBox="0 0 30 30" fill="none" xmlns="http://www.w3.org/2000/svg">
<rect width="30" height="30" rx="8" fill="#D9C01B"/>
<path d="M15 5V11M15 11L17 9M15 11L13 9M8 15V11C8 8.99 8 7.33 11 7.04M22 15V11C22 8.99 22 7.33 19 7.04M10 15C6 15 6 16.79 6 19V20C6 22.76 6 25 11 25H19C23 25 24 22.76 24 20V19C24 16.79 24 15 20 15C19 15 18.72 15.21 18.2 15.6L17.18 16.68C16 17.94 14 17.94 12.81 16.68L11.8 15.6C11.28 15.21 11 15 10 15Z" stroke="#0C0C0C" stroke-width="1.5" stroke-miterlimit="10" stroke-linecap="round" stroke-linejoin="round"/>
</svg>
