<svg width="16" height="16" viewBox="0 0 16 16" fill="none" xmlns="http://www.w3.org/2000/svg">
<path d="M13.3333 9.33317C14.0697 9.33317 14.6667 8.73622 14.6667 7.99984C14.6667 7.26346 14.0697 6.6665 13.3333 6.6665C12.597 6.6665 12 7.26346 12 7.99984C12 8.73622 12.597 9.33317 13.3333 9.33317Z" stroke="" stroke-width="1.5" stroke-linecap="round" stroke-linejoin="round"/>
<path d="M13.3333 4.00016C14.0697 4.00016 14.6667 3.40321 14.6667 2.66683C14.6667 1.93045 14.0697 1.3335 13.3333 1.3335C12.597 1.3335 12 1.93045 12 2.66683C12 3.40321 12.597 4.00016 13.3333 4.00016Z" stroke="" stroke-width="1.5" stroke-linecap="round" stroke-linejoin="round"/>
<path d="M13.3333 14.6667C14.0697 14.6667 14.6667 14.0697 14.6667 13.3333C14.6667 12.597 14.0697 12 13.3333 12C12.597 12 12 12.597 12 13.3333C12 14.0697 12.597 14.6667 13.3333 14.6667Z" stroke="" stroke-width="1.5" stroke-linecap="round" stroke-linejoin="round"/>
<path d="M2.66634 9.33317C3.40272 9.33317 3.99967 8.73622 3.99967 7.99984C3.99967 7.26346 3.40272 6.6665 2.66634 6.6665C1.92996 6.6665 1.33301 7.26346 1.33301 7.99984C1.33301 8.73622 1.92996 9.33317 2.66634 9.33317Z" stroke="" stroke-width="1.5" stroke-linecap="round" stroke-linejoin="round"/>
<path d="M4 8H12" stroke="" stroke-width="1.5" stroke-linecap="round" stroke-linejoin="round"/>
<path d="M11.9997 2.6665H9.33301C7.99967 2.6665 7.33301 3.33317 7.33301 4.6665V11.3332C7.33301 12.6665 7.99967 13.3332 9.33301 13.3332H11.9997" stroke="" stroke-width="1.5" stroke-linecap="round" stroke-linejoin="round"/>
</svg>
