<svg xmlns="http://www.w3.org/2000/svg" width="20" height="24" fill="none"><path fill="#1E1E1E" d="M16.703 12.75c.035 3.633 3.261 4.841 3.297 4.857-.027.085-.515 1.722-1.7 3.413-1.024 1.462-2.086 2.919-3.76 2.949-1.644.03-2.173-.953-4.054-.953-1.88 0-2.467.923-4.024.982-1.615.06-2.846-1.58-3.878-3.037-2.11-2.98-3.721-8.42-1.557-12.092C2.102 7.045 4.024 5.89 6.11 5.86c1.586-.03 3.084 1.043 4.053 1.043.97 0 2.79-1.29 4.703-1.1.8.032 3.048.315 4.492 2.38-.117.07-2.683 1.53-2.655 4.567m-3.09-8.919C14.47 2.817 15.048 1.405 14.89 0c-1.236.049-2.731.805-3.618 1.819-.795.898-1.491 2.335-1.303 3.712 1.378.105 2.786-.684 3.644-1.699Z"/></svg>