<svg xmlns="http://www.w3.org/2000/svg" width="16" height="16" fill="none"><path fill="#1E1E1E" d="M12.333 10.667H4.667a2.666 2.666 0 1 1 0-5.334H13a1.667 1.667 0 0 1 0 3.334H6A.669.669 0 0 1 5.333 8c0-.367.3-.667.667-.667h6.333v-1H6a1.667 1.667 0 0 0 0 3.334h7a2.666 2.666 0 1 0 0-5.334H4.667A3.665 3.665 0 0 0 1 8a3.665 3.665 0 0 0 3.667 3.667h7.666v-1Z"/><path fill="#000" fill-opacity=".2" d="M12.333 10.667H4.667a2.666 2.666 0 1 1 0-5.334H13a1.667 1.667 0 0 1 0 3.334H6A.669.669 0 0 1 5.333 8c0-.367.3-.667.667-.667h6.333v-1H6a1.667 1.667 0 0 0 0 3.334h7a2.666 2.666 0 1 0 0-5.334H4.667A3.665 3.665 0 0 0 1 8a3.665 3.665 0 0 0 3.667 3.667h7.666v-1Z"/><path fill="#000" fill-opacity=".2" d="M12.333 10.667H4.667a2.666 2.666 0 1 1 0-5.334H13a1.667 1.667 0 0 1 0 3.334H6A.669.669 0 0 1 5.333 8c0-.367.3-.667.667-.667h6.333v-1H6a1.667 1.667 0 0 0 0 3.334h7a2.666 2.666 0 1 0 0-5.334H4.667A3.665 3.665 0 0 0 1 8a3.665 3.665 0 0 0 3.667 3.667h7.666v-1Z"/><path fill="#000" fill-opacity=".2" d="M12.333 10.667H4.667a2.666 2.666 0 1 1 0-5.334H13a1.667 1.667 0 0 1 0 3.334H6A.669.669 0 0 1 5.333 8c0-.367.3-.667.667-.667h6.333v-1H6a1.667 1.667 0 0 0 0 3.334h7a2.666 2.666 0 1 0 0-5.334H4.667A3.665 3.665 0 0 0 1 8a3.665 3.665 0 0 0 3.667 3.667h7.666v-1Z"/><path fill="#000" fill-opacity=".2" d="M12.333 10.667H4.667a2.666 2.666 0 1 1 0-5.334H13a1.667 1.667 0 0 1 0 3.334H6A.669.669 0 0 1 5.333 8c0-.367.3-.667.667-.667h6.333v-1H6a1.667 1.667 0 0 0 0 3.334h7a2.666 2.666 0 1 0 0-5.334H4.667A3.665 3.665 0 0 0 1 8a3.665 3.665 0 0 0 3.667 3.667h7.666v-1Z"/></svg>