<svg width="16" height="16" viewBox="0 0 16 16" fill="none" xmlns="http://www.w3.org/2000/svg">
<path d="M12.8799 6.66651H3.12652C2.13985 6.66651 1.33984 5.85985 1.33984 4.87985V3.12652C1.33984 2.13985 2.14652 1.33984 3.12652 1.33984H12.8799C13.8665 1.33984 14.6665 2.14652 14.6665 3.12652V4.87985C14.6665 5.85985 13.8599 6.66651 12.8799 6.66651Z" stroke="" stroke-width="1.5" stroke-linecap="round" stroke-linejoin="round"/>
<path d="M12.8799 14.6665H3.12652C2.13985 14.6665 1.33984 13.8599 1.33984 12.8799V11.1265C1.33984 10.1398 2.14652 9.33984 3.12652 9.33984H12.8799C13.8665 9.33984 14.6665 10.1465 14.6665 11.1265V12.8799C14.6665 13.8599 13.8599 14.6665 12.8799 14.6665Z" stroke="" stroke-width="1.5" stroke-linecap="round" stroke-linejoin="round"/>
<path d="M9.33301 4H11.9997" stroke="" stroke-width="1.5" stroke-linecap="round" stroke-linejoin="round"/>
<path d="M9.33301 12H11.9997" stroke="" stroke-width="1.5" stroke-linecap="round" stroke-linejoin="round"/>
</svg>
