<svg width="18" height="18" viewBox="0 0 18 18" fill="none" xmlns="http://www.w3.org/2000/svg">
<path d="M11.8108 1H6.18919C3.32328 1 1 3.32328 1 6.18919V11.8108C1 14.6767 3.32328 17 6.18919 17H11.8108C14.6767 17 17 14.6767 17 11.8108V6.18919C17 3.32328 14.6767 1 11.8108 1Z" stroke="" stroke-width="1.5"/>
<path d="M11.8108 1H6.18919C3.32328 1 1 3.32328 1 6.18919V11.8108C1 14.6767 3.32328 17 6.18919 17H11.8108C14.6767 17 17 14.6767 17 11.8108V6.18919C17 3.32328 14.6767 1 11.8108 1Z" stroke="" stroke-opacity="0.2" stroke-width="1.5"/>
<path d="M11.8108 1H6.18919C3.32328 1 1 3.32328 1 6.18919V11.8108C1 14.6767 3.32328 17 6.18919 17H11.8108C14.6767 17 17 14.6767 17 11.8108V6.18919C17 3.32328 14.6767 1 11.8108 1Z" stroke="" stroke-opacity="0.2" stroke-width="1.5"/>
<path d="M11.8108 1H6.18919C3.32328 1 1 3.32328 1 6.18919V11.8108C1 14.6767 3.32328 17 6.18919 17H11.8108C14.6767 17 17 14.6767 17 11.8108V6.18919C17 3.32328 14.6767 1 11.8108 1Z" stroke="" stroke-opacity="0.2" stroke-width="1.5"/>
<path d="M11.8108 1H6.18919C3.32328 1 1 3.32328 1 6.18919V11.8108C1 14.6767 3.32328 17 6.18919 17H11.8108C14.6767 17 17 14.6767 17 11.8108V6.18919C17 3.32328 14.6767 1 11.8108 1Z" stroke="" stroke-opacity="0.2" stroke-width="1.5"/>
<path d="M5 11.1891L7.11892 8.36961C7.24868 8.19598 7.4389 8.07741 7.65192 8.03737C7.86495 7.99733 8.08524 8.03873 8.26919 8.15339L10.3362 9.45934C10.5272 9.58098 10.7583 9.62284 10.9799 9.57595C11.2014 9.52905 11.3957 9.39713 11.5211 9.20853L13.6486 5.99988" stroke="" stroke-width="1.5" stroke-linecap="round" stroke-linejoin="round"/>
<path d="M5 11.1891L7.11892 8.36961C7.24868 8.19598 7.4389 8.07741 7.65192 8.03737C7.86495 7.99733 8.08524 8.03873 8.26919 8.15339L10.3362 9.45934C10.5272 9.58098 10.7583 9.62284 10.9799 9.57595C11.2014 9.52905 11.3957 9.39713 11.5211 9.20853L13.6486 5.99988" stroke="" stroke-opacity="0.2" stroke-width="1.5" stroke-linecap="round" stroke-linejoin="round"/>
<path d="M5 11.1891L7.11892 8.36961C7.24868 8.19598 7.4389 8.07741 7.65192 8.03737C7.86495 7.99733 8.08524 8.03873 8.26919 8.15339L10.3362 9.45934C10.5272 9.58098 10.7583 9.62284 10.9799 9.57595C11.2014 9.52905 11.3957 9.39713 11.5211 9.20853L13.6486 5.99988" stroke="" stroke-opacity="0.2" stroke-width="1.5" stroke-linecap="round" stroke-linejoin="round"/>
<path d="M5 11.1891L7.11892 8.36961C7.24868 8.19598 7.4389 8.07741 7.65192 8.03737C7.86495 7.99733 8.08524 8.03873 8.26919 8.15339L10.3362 9.45934C10.5272 9.58098 10.7583 9.62284 10.9799 9.57595C11.2014 9.52905 11.3957 9.39713 11.5211 9.20853L13.6486 5.99988" stroke="" stroke-opacity="0.2" stroke-width="1.5" stroke-linecap="round" stroke-linejoin="round"/>
<path d="M5 11.1891L7.11892 8.36961C7.24868 8.19598 7.4389 8.07741 7.65192 8.03737C7.86495 7.99733 8.08524 8.03873 8.26919 8.15339L10.3362 9.45934C10.5272 9.58098 10.7583 9.62284 10.9799 9.57595C11.2014 9.52905 11.3957 9.39713 11.5211 9.20853L13.6486 5.99988" stroke="" stroke-opacity="0.2" stroke-width="1.5" stroke-linecap="round" stroke-linejoin="round"/>
</svg>
