<svg width="40" height="59" viewBox="0 0 40 59" fill="none" xmlns="http://www.w3.org/2000/svg">
<path d="M19.8462 25.1923C18.8246 25.1923 18 24.3677 18 23.3462C18 22.3369 18.8246 21.5 19.8462 21.5C20.8554 21.5 21.6923 22.3369 21.6923 23.3462C21.6923 24.3677 20.8554 25.1923 19.8462 25.1923ZM19.8462 31.3462C18.8246 31.3462 18 30.5215 18 29.5C18 28.4908 18.8246 27.6538 19.8462 27.6538C20.8554 27.6538 21.6923 28.4908 21.6923 29.5C21.6923 30.5215 20.8554 31.3462 19.8462 31.3462ZM19.8462 37.5C18.8246 37.5 18 36.6754 18 35.6538C18 34.6446 18.8246 33.8077 19.8462 33.8077C20.8554 33.8077 21.6923 34.6446 21.6923 35.6538C21.6923 36.6754 20.8554 37.5 19.8462 37.5Z" fill="#C6C6C6"/>
</svg>
