<svg width="24" height="24" viewBox="0 0 24 24" fill="none" xmlns="http://www.w3.org/2000/svg">
<path d="M7.69231 11.9995C7.69231 13.0211 6.86769 13.8457 5.84615 13.8457C4.83692 13.8457 4 13.0211 4 11.9995C4 10.9903 4.83692 10.1534 5.84615 10.1534C6.86769 10.1534 7.69231 10.9903 7.69231 11.9995ZM13.8462 11.9995C13.8462 13.0211 13.0215 13.8457 12 13.8457C10.9908 13.8457 10.1538 13.0211 10.1538 11.9995C10.1538 10.9903 10.9908 10.1534 12 10.1534C13.0215 10.1534 13.8462 10.9903 13.8462 11.9995ZM20 11.9995C20 13.0211 19.1754 13.8457 18.1538 13.8457C17.1446 13.8457 16.3077 13.0211 16.3077 11.9995C16.3077 10.9903 17.1446 10.1534 18.1538 10.1534C19.1754 10.1534 20 10.9903 20 11.9995Z" fill="white"/>
</svg>
