<svg width="16" height="16" viewBox="0 0 16 16" fill="none" xmlns="http://www.w3.org/2000/svg">
<path d="M5.78125 9.55307C5.78125 10.4131 6.44125 11.1064 7.26125 11.1064H8.93458C9.64792 11.1064 10.2279 10.4997 10.2279 9.75307C10.2279 8.93973 9.87458 8.65307 9.34792 8.4664L6.66125 7.53307C6.13458 7.3464 5.78125 7.05973 5.78125 6.2464C5.78125 5.49973 6.36125 4.89307 7.07458 4.89307H8.74792C9.56792 4.89307 10.2279 5.5864 10.2279 6.4464" stroke="" stroke-width="1.5" stroke-linecap="round" stroke-linejoin="round"/>
<path d="M8 4V12" stroke="" stroke-width="1.5" stroke-linecap="round" stroke-linejoin="round"/>
<path d="M9.99967 14.6668H5.99967C2.66634 14.6668 1.33301 13.3335 1.33301 10.0002V6.00016C1.33301 2.66683 2.66634 1.3335 5.99967 1.3335H9.99967C13.333 1.3335 14.6663 2.66683 14.6663 6.00016V10.0002C14.6663 13.3335 13.333 14.6668 9.99967 14.6668Z" stroke="" stroke-width="1.5" stroke-linecap="round" stroke-linejoin="round"/>
</svg>
