<svg width="36" height="36" viewBox="0 0 36 36" fill="none" xmlns="http://www.w3.org/2000/svg">
<path d="M17.9998 3.08203C9.76057 3.08203 3.08154 9.76106 3.08154 18.0003C3.08154 26.2395 9.76057 32.9186 17.9998 32.9186C26.239 32.9186 32.9181 26.2395 32.9181 18.0003C32.9181 9.76106 26.239 3.08203 17.9998 3.08203ZM14.3479 24.1836H11.327V14.4619H14.3479V24.1836ZM12.8188 13.2684C11.8647 13.2684 11.2477 12.5924 11.2477 11.7564C11.2477 10.9032 11.8833 10.2475 12.8577 10.2475C13.832 10.2475 14.4287 10.9032 14.4474 11.7564C14.4474 12.5924 13.832 13.2684 12.8188 13.2684ZM25.3812 24.1836H22.3603V18.7959C22.3603 17.5419 21.9221 16.6903 20.8296 16.6903C19.9951 16.6903 19.4994 17.2668 19.2803 17.8216C19.1995 18.0189 19.1793 18.2987 19.1793 18.5768V24.182H16.1568V17.5621C16.1568 16.3484 16.1179 15.3337 16.0775 14.4603H18.7022L18.8405 15.8107H18.9011C19.2989 15.1767 20.2733 14.2412 21.9034 14.2412C23.891 14.2412 25.3812 15.573 25.3812 18.4354V24.1836V24.1836Z" fill="white"/>
</svg>
