<svg width="202" height="69" viewBox="0 0 202 69" fill="none" xmlns="http://www.w3.org/2000/svg">
<path d="M28.97 50.6799C27.639 50.5119 26.385 50.0999 25.2407 49.4559C22.9682 48.1679 21.7346 46.3039 21.1016 44.9679L21.4708 44.7999C22.0795 46.0839 23.2645 47.8759 25.4476 49.1119C26.5433 49.7319 27.7485 50.1279 29.0227 50.2879L28.974 50.6839L28.97 50.6799Z" fill="#FFDE00"/>
<path d="M38.0843 34.9799L37.6907 34.888C38.6686 30.716 38.6686 26.3239 37.6907 22.1799C36.2826 16.2119 33.1863 11.976 30.8408 9.47195L31.1371 9.19995C33.5191 11.74 36.6559 16.036 38.0843 22.092C39.0785 26.296 39.0785 30.7519 38.0843 34.9839V34.9799Z" fill="#FFDE00"/>
<path d="M30.9945 56C30.2548 56 29.4825 55.8842 28.6899 55.6008C13.8746 50.3116 7.08684 35.6733 7.02994 35.5296C7.00148 35.4578 3.949 28.1447 5.80244 21.4303C5.85528 21.2427 5.92844 21.0711 6.0016 20.9353C4.69688 21.4662 3.70513 22.065 2.93287 22.5321C1.88015 23.1668 1.18104 23.5899 0.607943 23.2506C-0.550455 22.572 0.0876798 19.0671 1.33956 16.2129C4.6034 8.76808 13.1105 3.7423 19.0041 3.71835C19.6016 3.71835 24.918 3.73033 26.8365 4.94785C27.1861 5.1714 27.56 5.35502 27.7429 5.40692C27.7429 5.30712 27.747 5.20333 27.7429 5.12749C27.7307 4.94785 27.6918 4.90124 27.751 4.66842C27.8811 4.15746 27.9258 3.50678 27.9705 2.87607C28.064 1.52282 28.1615 0.125661 29.1696 0.125661C29.3443 0.125661 29.576 0.0977179 29.8239 0.0697748C30.4865 -0.00607092 31.2343 -0.0899004 31.6002 0.22945C31.7383 0.349206 31.8115 0.520857 31.8115 0.724443C31.8115 1.76632 31.6611 2.36111 31.4904 3.04772C31.2587 3.96585 30.9986 5.00773 30.9986 7.51064C30.9986 7.68628 31.0433 7.80604 31.1368 7.89386C31.462 8.19325 32.3765 8.14535 33.5389 8.08148C34.5917 8.02559 35.9045 7.95374 37.319 8.10942C37.3962 8.1174 44.8831 9.04751 50.4515 14.9595C52.8618 17.5183 54.0324 20.101 54.4186 20.9513L54.4714 21.0711C55.0933 22.4283 55.5079 23.9452 55.7842 25.8453C57.6011 38.3399 47.6389 50.1878 37.3637 54.0041C36.9735 54.1478 36.5345 54.3514 36.0671 54.5669C34.6892 55.1976 32.9455 56 30.9905 56H30.9945ZM6.69664 20.6679C6.60722 20.7477 6.55845 20.8076 6.55845 20.8076C6.55845 20.8076 6.30645 21.119 6.19264 21.5301C4.37578 28.1087 7.37136 35.3021 7.40388 35.374C8.56634 38.2122 16.0289 50.6509 28.8281 55.2216C31.5554 56.1956 33.9617 55.0899 35.9005 54.1997C36.3719 53.9841 36.819 53.7765 37.2255 53.6248C47.3544 49.8645 57.1743 38.1962 55.3859 25.8972C55.1136 24.037 54.7071 22.552 54.1015 21.2307L54.0487 21.111C53.63 20.1888 52.5204 17.7378 50.1548 15.2269C44.6921 9.42674 37.3474 8.5126 37.2743 8.50462C35.8923 8.35292 34.5998 8.42079 33.5633 8.47667C32.4009 8.54054 31.527 8.58844 31.0311 8.30502C30.9295 8.66429 30.4661 9.47065 29.9947 10.2171C28.8566 12.261 26.6942 15.4505 23.1703 17.2628C22.1054 17.8416 21.0933 18.1849 20.1137 18.4204C17.8701 19.0352 15.3298 19.3426 12.5333 19.6779C11.7529 19.7737 11.1392 19.8296 10.5986 19.8775C9.33047 19.9932 8.56634 20.0651 7.28194 20.4683C7.08278 20.5321 6.89174 20.596 6.70071 20.6639L6.69664 20.6679Z" fill="#FFDE00"/>
<path d="M8.80148 14.3439L8.52148 14.0559C9.87685 12.7839 11.3945 11.6959 13.0299 10.8239C15.558 9.4759 18.3134 8.6599 21.2229 8.3999L21.2595 8.7999C18.4067 9.0559 15.7 9.8559 13.2206 11.1759C11.6177 12.0319 10.1284 13.0959 8.80148 14.3439Z" fill="#1E1E1E"/>
<path d="M131 46.4967L130.843 46.6592C129.808 46.5942 128.199 46.5617 126.014 46.5617C123.778 46.5617 122.168 46.5942 121.186 46.6592L121.029 46.513V45.408L121.201 45.2455C122.267 45.1805 122.879 45.1264 123.036 45.083C123.339 44.9964 123.516 44.796 123.569 44.4818C123.705 43.7019 123.772 42.0228 123.772 39.4446V35.5285C123.239 35.4744 121.546 35.4473 118.693 35.4473C116.059 35.4473 114.324 35.4744 113.488 35.5285V39.4446C113.488 42.0228 113.556 43.7019 113.692 44.4818C113.744 44.796 113.922 44.9964 114.225 45.083C114.382 45.1264 114.993 45.1805 116.059 45.2455L116.216 45.408V46.4967L116.075 46.6592C115.03 46.5942 113.42 46.5617 111.246 46.5617C108.999 46.5617 107.39 46.5942 106.418 46.6592L106.261 46.513V45.408L106.418 45.2455C107.484 45.1805 108.095 45.1264 108.252 45.083C108.555 44.9964 108.733 44.796 108.785 44.4818C108.921 43.7019 108.989 42.0228 108.989 39.4446V30.8488C108.989 28.2706 108.921 26.5915 108.785 25.8115C108.733 25.4974 108.555 25.297 108.252 25.2103C108.095 25.167 107.484 25.1128 106.418 25.0478L106.261 24.8853V23.7804L106.418 23.6342C107.421 23.6992 109.03 23.7317 111.246 23.7317C113.514 23.7317 115.124 23.6992 116.075 23.6342L116.216 23.7804V24.9016L116.059 25.0478C114.993 25.1128 114.382 25.167 114.225 25.2103C113.922 25.297 113.744 25.4974 113.692 25.8115C113.556 26.5915 113.488 28.2706 113.488 30.8488V33.5299C114.596 33.5841 116.122 33.6111 118.066 33.6111C121.118 33.6111 123.02 33.5841 123.772 33.5299V30.8488C123.772 28.2706 123.705 26.5915 123.569 25.8115C123.516 25.4974 123.339 25.297 123.036 25.2103C122.879 25.167 122.267 25.1128 121.201 25.0478L121.029 24.8853V23.7804L121.186 23.6342C122.2 23.6992 123.809 23.7317 126.014 23.7317C128.293 23.7317 129.902 23.6992 130.843 23.6342L131 23.7804V24.9016L130.859 25.0478C129.772 25.1128 129.155 25.167 129.009 25.2103C128.706 25.297 128.528 25.4974 128.476 25.8115C128.34 26.5915 128.272 28.2706 128.272 30.8488V39.4446C128.272 42.0228 128.34 43.7019 128.476 44.4818C128.528 44.796 128.706 44.9964 129.009 45.083C129.166 45.1264 129.777 45.1805 130.843 45.2455L131 45.408V46.4967Z" fill="#D9C01B"/>
<path d="M104.239 43.7181L103.517 45.3755C101.312 46.6321 98.8455 47.2604 96.1176 47.2604C90.6618 47.2604 86.9306 45.2238 84.9239 41.1507C83.9937 39.2658 83.5286 37.2238 83.5286 35.0248C83.5286 31.4716 84.6678 28.6388 86.9463 26.5265C89.277 24.3491 92.4595 23.2604 96.4938 23.2604C99.0545 23.2604 101.558 23.7424 104.003 24.7066L104.207 24.9503C103.852 26.4452 103.632 28.1947 103.549 30.1988L103.408 30.3613H102.483L102.326 30.1825C102.295 28.8718 102.237 27.9618 102.153 27.4527C100.847 25.9252 98.9604 25.1615 96.4938 25.1615C93.9541 25.1615 91.9631 25.9957 90.5207 27.6639C89.0784 29.3321 88.3572 31.5962 88.3572 34.456C88.3572 38.3233 89.6428 41.2915 92.2139 43.3606C93.5831 44.4655 95.4173 45.018 97.7167 45.018C99.807 45.018 101.85 44.4601 103.847 43.3443L104.239 43.7181Z" fill="#D9C01B"/>
<path d="M81.2709 46.4967L81.1298 46.6592C78.8095 46.5942 77.409 46.5617 76.9282 46.5617C75.0051 46.5617 73.2179 46.5942 71.5665 46.6592L71.4254 46.4967V45.473L71.5822 45.2943L72.9461 45.213C73.521 45.1805 73.8084 44.9693 73.8084 44.5793C73.8084 44.3518 73.662 43.8427 73.3694 43.0519L72.0995 39.6233C70.6572 39.6016 69.1835 39.5908 67.6785 39.5908C66.8632 39.5908 65.6508 39.6016 64.0413 39.6233L63.3515 41.6057C62.8289 43.1114 62.5676 44.0539 62.5676 44.433C62.5676 44.8447 62.8132 45.0884 63.3045 45.1643C63.5762 45.2076 64.1092 45.2509 64.9036 45.2943L65.0603 45.4567V46.4967L64.9036 46.6592C62.97 46.5942 61.7263 46.5617 61.1723 46.5617C60.7438 46.5617 59.683 46.5942 57.9898 46.6592L57.833 46.5129V45.4567L58.0055 45.2943C59.082 45.2293 59.7404 45.0072 59.9808 44.628C60.2317 44.2489 61.1566 41.9903 62.7557 37.8521L66.8476 27.2414C67.1507 26.4182 67.6105 25.1778 68.2272 23.5204H70.4534L78.7625 43.7831C79.0865 44.5522 79.3791 44.9855 79.6404 45.083C79.9853 45.213 80.4818 45.278 81.1298 45.278L81.2709 45.4567V46.4967ZM71.3313 37.7546L67.9763 29.2401L64.7625 37.7546C65.6195 37.7871 66.7326 37.8034 68.1018 37.8034C69.4291 37.8034 70.5056 37.7871 71.3313 37.7546Z" fill="#D9C01B"/>
<path d="M55.8576 41.1345C55.6277 42.7161 55.5127 44.5035 55.5127 46.4967L55.3559 46.6592L43.9584 46.5617C42.0562 46.5617 40.7131 46.5942 39.9293 46.6592L39.7725 46.4967V46.0417L39.8509 45.8467C40.6243 45.3376 41.0424 45.018 41.1051 44.888C41.1991 44.6822 41.2566 43.9618 41.2775 42.7269L41.3246 39.0871V30.8488C41.3246 28.2706 41.2566 26.5915 41.1208 25.8115C41.0685 25.4974 40.8908 25.297 40.5877 25.2103C40.4309 25.167 39.8195 25.1128 38.7535 25.0478L38.5967 24.8853V23.7804L38.7535 23.6342C39.8091 23.6992 41.4395 23.7317 43.6448 23.7317C45.6097 23.7317 49.3462 23.6992 54.8542 23.6342L55.0267 23.7641L54.8229 25.5678C54.7602 26.1419 54.7131 26.6294 54.6818 27.0302L54.572 28.5414L54.4153 28.7201H53.506L53.3492 28.5576C53.3387 27.0844 53.2551 26.2449 53.0984 26.039C52.9834 25.8874 52.419 25.7682 51.4052 25.6815C50.4018 25.5949 49.5187 25.5516 48.7557 25.5516C47.8464 25.5516 46.9267 25.5895 45.9965 25.6653C45.8815 26.8027 45.824 28.3789 45.824 30.3938V33.7574C46.6497 33.8115 47.3186 33.8386 47.8307 33.8386L49.8845 33.8224C50.846 33.8115 51.3895 33.7303 51.5149 33.5786C51.6822 33.3836 51.7919 32.6524 51.8442 31.385L52.0009 31.2225H52.9729L53.1297 31.385C53.0879 32.5983 53.067 33.7086 53.067 34.7161C53.067 35.8102 53.0879 37.0072 53.1297 38.3071L52.9729 38.4534H51.9225L51.7658 38.2909C51.7658 37.0451 51.6822 36.3085 51.5149 36.081C51.3477 35.8427 50.8408 35.6856 49.9942 35.6098C49.3567 35.5556 48.6773 35.5285 47.9561 35.5285C47.1932 35.5285 46.4825 35.5556 45.824 35.6098V40.5658C45.824 41.9849 45.8501 43.3606 45.9024 44.6931H48.0345C51.0864 44.6931 52.9573 44.5685 53.6471 44.3193C53.762 44.276 53.8457 44.2164 53.8979 44.1406C54.0024 43.9889 54.1017 43.6639 54.1958 43.1656L54.572 41.1507L54.7288 40.972H55.6851L55.8576 41.1345Z" fill="#D9C01B"/>
<path d="M36.7783 28.7201C36.7783 30.9517 36.0414 32.6958 34.5677 33.9524C33.1045 35.1981 31.4479 35.821 29.598 35.821C28.9709 35.821 28.3386 35.7452 27.701 35.5935C27.6069 35.301 27.424 34.9111 27.1523 34.4236L27.4815 34.0661C27.9205 34.2178 28.3229 34.2936 28.6887 34.2936C29.7443 34.2936 30.5909 33.909 31.2284 33.1399C31.866 32.36 32.1848 31.2713 32.1848 29.8738C32.1848 26.8515 30.8731 25.3403 28.2497 25.3403C27.9362 25.3403 27.3091 25.4053 26.3684 25.5353C26.2744 25.7953 26.2273 27.5665 26.2273 30.8488V39.4446C26.2273 42.0228 26.2953 43.7019 26.4311 44.4818C26.4834 44.796 26.6611 44.9964 26.9642 45.083C27.0582 45.1047 27.7742 45.1589 29.112 45.2455L29.2844 45.4243V46.4967L29.1277 46.6592C27.6958 46.5942 25.9817 46.5617 23.9854 46.5617C21.7383 46.5617 20.1288 46.5942 19.1568 46.6592L19 46.513V45.4243L19.1725 45.2455C20.2281 45.1805 20.8343 45.1264 20.991 45.083C21.2941 44.9964 21.4718 44.796 21.5241 44.4818C21.6599 43.7019 21.7279 42.0228 21.7279 39.4446V30.8488C21.7279 28.2706 21.6599 26.5915 21.5241 25.8115C21.4718 25.4974 21.2941 25.297 20.991 25.2103C20.8343 25.167 20.2228 25.1128 19.1568 25.0478L19 24.8691V23.7966L19.1725 23.6342C20.1967 23.6992 21.7697 23.7317 23.8914 23.7317C24.7693 23.7317 26.034 23.7154 27.6853 23.6829C29.3367 23.6504 30.2878 23.6342 30.5386 23.6342C33.4024 23.6342 35.2628 24.387 36.1198 25.8928C36.5588 26.6727 36.7783 27.6152 36.7783 28.7201Z" fill="#D9C01B"/>
<path d="M193.375 60.637H197.298V61.7484H193.375V60.637ZM195.476 66.2211C194.894 66.2211 194.385 66.0961 193.948 65.8461C193.516 65.5915 193.182 65.2302 192.945 64.762C192.713 64.2893 192.597 63.737 192.597 63.1052V59.2256C192.597 58.5893 192.713 58.037 192.945 57.5688C193.182 57.0961 193.516 56.7347 193.948 56.4847C194.38 56.2302 194.889 56.1029 195.476 56.1029C196.004 56.1029 196.472 56.212 196.882 56.4302C197.296 56.6484 197.628 56.962 197.878 57.3711C198.128 57.7756 198.283 58.2552 198.342 58.8097V59.0075H197.161V58.8097C197.116 58.487 197.014 58.2075 196.854 57.9711C196.695 57.7302 196.497 57.5461 196.261 57.4188C196.024 57.287 195.763 57.2211 195.476 57.2211C195.131 57.2211 194.83 57.3029 194.576 57.4665C194.321 57.6302 194.123 57.862 193.982 58.162C193.841 58.462 193.771 58.8165 193.771 59.2256V63.1052C193.771 63.5097 193.841 63.862 193.982 64.162C194.123 64.462 194.321 64.6938 194.576 64.8575C194.83 65.0211 195.131 65.1029 195.476 65.1029C195.763 65.1029 196.024 65.0415 196.261 64.9188C196.497 64.7915 196.695 64.6097 196.854 64.3734C197.014 64.1325 197.116 63.8461 197.161 63.5143V63.3165H198.342V63.5143C198.283 64.0643 198.128 64.5438 197.878 64.9529C197.628 65.362 197.296 65.6756 196.882 65.8938C196.472 66.112 196.004 66.2211 195.476 66.2211Z" fill="#D9C01B"/>
<path d="M188.19 66.2211C187.576 66.2211 187.043 66.0984 186.593 65.8529C186.147 65.6075 185.806 65.2552 185.57 64.7961C185.333 64.3325 185.215 63.7825 185.215 63.1461V59.1779C185.215 58.537 185.333 57.987 185.57 57.5279C185.806 57.0643 186.147 56.712 186.593 56.4711C187.043 56.2256 187.576 56.1029 188.19 56.1029C188.808 56.1029 189.34 56.2256 189.786 56.4711C190.232 56.712 190.573 57.0643 190.809 57.5279C191.046 57.987 191.164 58.537 191.164 59.1779V63.1461C191.164 63.7825 191.046 64.3325 190.809 64.7961C190.573 65.2552 190.232 65.6075 189.786 65.8529C189.34 66.0984 188.808 66.2211 188.19 66.2211ZM188.19 65.0961C188.563 65.0961 188.883 65.0211 189.152 64.8711C189.424 64.7165 189.631 64.4984 189.772 64.2165C189.918 63.9302 189.991 63.5893 189.991 63.1938V59.1302C189.991 58.7347 189.918 58.3961 189.772 58.1143C189.631 57.8279 189.424 57.6097 189.152 57.4597C188.883 57.3052 188.563 57.2279 188.19 57.2279C187.817 57.2279 187.494 57.3052 187.221 57.4597C186.952 57.6097 186.745 57.8279 186.6 58.1143C186.459 58.3961 186.388 58.7347 186.388 59.1302V63.1938C186.388 63.5893 186.459 63.9302 186.6 64.2165C186.745 64.4984 186.952 64.7165 187.221 64.8711C187.494 65.0211 187.817 65.0961 188.19 65.0961Z" fill="#D9C01B"/>
<path d="M178.89 65.0347H181.135C181.667 65.0347 182.063 64.9257 182.322 64.7075C182.581 64.4847 182.711 64.1734 182.711 63.7734V63.0029C182.711 62.6938 182.656 62.4302 182.547 62.212C182.438 61.9893 182.276 61.8211 182.063 61.7075C181.849 61.5893 181.585 61.5302 181.271 61.5302H178.89V60.4529H181.271C181.699 60.4529 182.024 60.3393 182.247 60.112C182.47 59.8847 182.581 59.5552 182.581 59.1234V58.5166C182.581 58.112 182.461 57.8075 182.22 57.6029C181.983 57.3938 181.637 57.2893 181.182 57.2893H178.89V56.2052H181.285C181.817 56.2052 182.267 56.2961 182.636 56.4779C183.004 56.6597 183.282 56.9188 183.468 57.2552C183.655 57.5916 183.748 57.9961 183.748 58.4688V59.062C183.748 59.3893 183.693 59.687 183.584 59.9552C183.475 60.2234 183.311 60.4507 183.093 60.637C182.874 60.8188 182.608 60.9416 182.295 61.0052C182.622 61.0552 182.904 61.1779 183.141 61.3734C183.382 61.5643 183.564 61.8075 183.686 62.1029C183.814 62.3984 183.877 62.7279 183.877 63.0916V63.8211C183.877 64.2893 183.78 64.6961 183.584 65.0416C183.388 65.387 183.106 65.6529 182.738 65.8393C182.37 66.0257 181.935 66.1188 181.435 66.1188H178.89V65.0347ZM178.071 56.2052H179.231V66.1188H178.071V56.2052Z" fill="#D9C01B"/>
<path d="M173.739 66.2211C173.152 66.2211 172.643 66.0961 172.211 65.8461C171.779 65.5961 171.444 65.237 171.208 64.7688C170.976 64.2961 170.86 63.7415 170.86 63.1052V59.2256C170.86 58.5847 170.976 58.0302 171.208 57.562C171.444 57.0938 171.779 56.7347 172.211 56.4847C172.643 56.2302 173.152 56.1029 173.739 56.1029C174.294 56.1029 174.778 56.2165 175.192 56.4438C175.606 56.6711 175.934 57.0029 176.175 57.4393C176.416 57.8756 176.557 58.3984 176.598 59.0075H175.424C175.388 58.6347 175.295 58.3143 175.145 58.0461C174.994 57.7779 174.799 57.5734 174.558 57.4325C174.317 57.2915 174.044 57.2211 173.739 57.2211C173.393 57.2211 173.091 57.3029 172.832 57.4665C172.577 57.6256 172.379 57.8575 172.238 58.162C172.102 58.462 172.033 58.8165 172.033 59.2256V63.1052C172.033 63.5143 172.102 63.8688 172.238 64.1688C172.379 64.4688 172.577 64.7006 172.832 64.8643C173.091 65.0234 173.393 65.1029 173.739 65.1029C174.048 65.1029 174.321 65.0347 174.558 64.8984C174.799 64.7575 174.994 64.5552 175.145 64.2915C175.295 64.0234 175.388 63.6984 175.424 63.3165H176.598C176.557 63.9256 176.416 64.4484 176.175 64.8847C175.934 65.3211 175.606 65.6529 175.192 65.8802C174.778 66.1075 174.294 66.2211 173.739 66.2211Z" fill="#D9C01B"/>
<path d="M160.981 65.0211H163.539C163.807 65.0211 164.042 64.9643 164.242 64.8507C164.442 64.7325 164.594 64.5643 164.699 64.3461C164.804 64.1234 164.856 63.862 164.856 63.562V62.7711C164.856 62.462 164.804 62.1961 164.699 61.9734C164.594 61.7507 164.442 61.5802 164.242 61.462C164.046 61.3438 163.812 61.2847 163.539 61.2847H160.981V60.187H163.491C164.014 60.187 164.467 60.2893 164.849 60.4938C165.231 60.6984 165.522 60.9961 165.722 61.387C165.927 61.7734 166.029 62.2325 166.029 62.7643V63.5757C166.029 64.1029 165.927 64.5575 165.722 64.9393C165.522 65.3211 165.231 65.6143 164.849 65.8188C164.467 66.0188 164.014 66.1188 163.491 66.1188H160.981V65.0211ZM160.264 56.2052H161.431V66.1188H160.264V56.2052Z" fill="#D9C01B"/>
<path d="M155.57 56.9143H156.73V66.1188H155.57V56.9143ZM153.196 56.2052H159.104V57.2961H153.196V56.2052Z" fill="#D9C01B"/>
<path d="M150.637 66.112V58.1825L150.89 58.2029L146.626 66.112H145.664V56.2052H146.796V64.1961L146.571 64.1484L150.815 56.2052H151.763V66.112H150.637Z" fill="#D9C01B"/>
<path d="M136.705 65.0211H136.883C137.247 65.0211 137.524 64.8166 137.715 64.4075C137.911 63.9984 138.008 63.4143 138.008 62.6552V56.2052H139.175V62.7575C139.175 63.412 139.096 63.9666 138.936 64.4211C138.777 64.8711 138.541 65.2166 138.227 65.4575C137.913 65.6938 137.522 65.812 137.053 65.812H136.705V65.0211ZM136.562 65.0211H137.729V68.1029H136.562V65.0211ZM136.562 65.0211H143.562V66.1188H136.562V65.0211ZM143.05 65.0211H144.217V68.1029H143.05V65.0211ZM141.972 56.2052H143.139V66.1188H141.972V56.2052ZM138.875 56.2052H142.552V57.2961H138.875V56.2052Z" fill="#D9C01B"/>
<path d="M132.666 66.2211C132.052 66.2211 131.52 66.0984 131.07 65.8529C130.624 65.6075 130.283 65.2552 130.046 64.7961C129.81 64.3325 129.691 63.7825 129.691 63.1461V59.1779C129.691 58.537 129.81 57.987 130.046 57.5279C130.283 57.0643 130.624 56.712 131.07 56.4711C131.52 56.2256 132.052 56.1029 132.666 56.1029C133.285 56.1029 133.817 56.2256 134.263 56.4711C134.708 56.712 135.05 57.0643 135.286 57.5279C135.523 57.987 135.641 58.537 135.641 59.1779V63.1461C135.641 63.7825 135.523 64.3325 135.286 64.7961C135.05 65.2552 134.708 65.6075 134.263 65.8529C133.817 66.0984 133.285 66.2211 132.666 66.2211ZM132.666 65.0961C133.039 65.0961 133.36 65.0211 133.628 64.8711C133.901 64.7165 134.108 64.4984 134.249 64.2165C134.395 63.9302 134.467 63.5893 134.467 63.1938V59.1302C134.467 58.7347 134.395 58.3961 134.249 58.1143C134.108 57.8279 133.901 57.6097 133.628 57.4597C133.36 57.3052 133.039 57.2279 132.666 57.2279C132.293 57.2279 131.97 57.3052 131.697 57.4597C131.429 57.6097 131.222 57.8279 131.076 58.1143C130.935 58.3961 130.865 58.7347 130.865 59.1302V63.1938C130.865 63.5893 130.935 63.9302 131.076 64.2165C131.222 64.4984 131.429 64.7165 131.697 64.8711C131.97 65.0211 132.293 65.0961 132.666 65.0961Z" fill="#D9C01B"/>
<path d="M125.646 61.7143L125.434 61.3802L122.698 56.2052H123.974L126.048 60.2961L126.26 60.6507L129.18 66.1188H127.904L125.646 61.7143ZM125.591 60.4938L127.754 56.2052H129.03L126.225 61.5438L123.892 66.1188H122.616L125.591 60.4938Z" fill="#D9C01B"/>
<path d="M118.148 56.2052H119.335L122.309 66.1188H121.04L118.741 57.7257L116.442 66.1188H115.173L118.148 56.2052ZM116.701 62.737H120.89V63.8279H116.701V62.737Z" fill="#D9C01B"/>
<path d="M112.955 56.2052H114.115V66.1188H112.955V56.2052ZM108.316 56.2052H109.483V66.1188H108.316V56.2052ZM109.135 60.6779H113.508V61.7825H109.135V60.6779Z" fill="#D9C01B"/>
<path d="M103.901 66.2211C103.274 66.2211 102.744 66.1211 102.312 65.9211C101.88 65.7165 101.548 65.412 101.316 65.0075C101.084 64.5984 100.954 64.087 100.927 63.4734H102.1C102.137 64.0188 102.307 64.4279 102.612 64.7006C102.921 64.9688 103.362 65.1029 103.936 65.1029C104.463 65.1029 104.873 64.962 105.164 64.6802C105.455 64.3984 105.6 64.0006 105.6 63.487V62.9484C105.6 62.4938 105.48 62.1415 105.239 61.8915C105.002 61.6415 104.668 61.5165 104.236 61.5165H102.789V60.412H104.236C104.618 60.412 104.914 60.3052 105.123 60.0915C105.332 59.8779 105.437 59.5779 105.437 59.1915V58.6325C105.437 58.1734 105.305 57.8234 105.041 57.5825C104.782 57.3415 104.411 57.2211 103.929 57.2211C103.428 57.2211 103.037 57.3506 102.755 57.6097C102.478 57.8688 102.312 58.2575 102.257 58.7756H101.091C101.131 58.1802 101.263 57.6847 101.486 57.2893C101.714 56.8938 102.03 56.5984 102.435 56.4029C102.844 56.2029 103.342 56.1029 103.929 56.1029C104.497 56.1029 104.982 56.1984 105.382 56.3893C105.787 56.5802 106.094 56.862 106.303 57.2347C106.512 57.6029 106.617 58.0529 106.617 58.5847V59.137C106.617 59.5188 106.517 59.8665 106.317 60.1802C106.121 60.4938 105.844 60.7484 105.484 60.9438C105.898 61.0665 106.217 61.3075 106.44 61.6665C106.667 62.0211 106.781 62.4597 106.781 62.9825V63.5211C106.781 64.0893 106.667 64.5756 106.44 64.9802C106.217 65.3847 105.889 65.6938 105.457 65.9075C105.025 66.1165 104.506 66.2211 103.901 66.2211Z" fill="#D9C01B"/>
<path d="M94.8748 56.2052H96.0347V66.1188H94.8748V56.2052ZM90.2354 56.2052H91.402V66.1188H90.2354V56.2052ZM91.0541 60.6779H95.4275V61.7825H91.0541V60.6779Z" fill="#D9C01B"/>
<path d="M83.4126 56.2052H84.5793V66.1188H83.4126V56.2052ZM84.088 65.0211H88.7275V66.1188H84.088V65.0211ZM84.088 60.6507H88.1817V61.7416H84.088V60.6507ZM84.088 56.2052H88.7275V57.2961H84.088V56.2052Z" fill="#D9C01B"/>
<path d="M78.0981 60.7597L80.527 56.2052H81.871L78.8554 61.687L78.0981 60.7597ZM78.0776 61.6393L79.101 61.0393L82.2872 66.1188H80.834L78.0776 61.6393ZM74.1818 61.0393L75.1984 61.6393L72.442 66.1188H70.9888L74.1818 61.0393ZM71.405 56.2052H72.749L75.1779 60.7597L74.4274 61.687L71.405 56.2052ZM74.1477 60.6507H79.1351V61.7416H74.1477V60.6507ZM76.0581 56.2052H77.2179V66.1188H76.0581V56.2052Z" fill="#D9C01B"/>
<path d="M67.5362 66.2211C66.9222 66.2211 66.39 66.0984 65.9397 65.8529C65.494 65.6075 65.1528 65.2552 64.9163 64.7961C64.6798 64.3325 64.5615 63.7825 64.5615 63.1461V59.1779C64.5615 58.537 64.6798 57.987 64.9163 57.5279C65.1528 57.0643 65.494 56.712 65.9397 56.4711C66.39 56.2256 66.9222 56.1029 67.5362 56.1029C68.1548 56.1029 68.687 56.2256 69.1328 56.4711C69.5785 56.712 69.9196 57.0643 70.1562 57.5279C70.3927 57.987 70.511 58.537 70.511 59.1779V63.1461C70.511 63.7825 70.3927 64.3325 70.1562 64.7961C69.9196 65.2552 69.5785 65.6075 69.1328 65.8529C68.687 66.0984 68.1548 66.2211 67.5362 66.2211ZM67.5362 65.0961C67.9092 65.0961 68.2299 65.0211 68.4982 64.8711C68.7712 64.7165 68.9781 64.4984 69.1191 64.2165C69.2647 63.9302 69.3374 63.5893 69.3374 63.1938V59.1302C69.3374 58.7347 69.2647 58.3961 69.1191 58.1143C68.9781 57.8279 68.7712 57.6097 68.4982 57.4597C68.2299 57.3052 67.9092 57.2279 67.5362 57.2279C67.1633 57.2279 66.8403 57.3052 66.5674 57.4597C66.299 57.6097 66.0921 57.8279 65.9465 58.1143C65.8055 58.3961 65.735 58.7347 65.735 59.1302V63.1938C65.735 63.5893 65.8055 63.9302 65.9465 64.2165C66.0921 64.4984 66.299 64.7165 66.5674 64.8711C66.8403 65.0211 67.1633 65.0961 67.5362 65.0961Z" fill="#D9C01B"/>
<path d="M59.8676 60.7597L62.3306 56.2052H63.6679L60.6317 61.687L59.8676 60.7597ZM59.8471 61.6393L60.8774 61.0393L64.084 66.1188H62.6376L59.8471 61.6393ZM57.5547 56.2052H58.7214V66.1188H57.5547V56.2052ZM58.2301 60.6507H60.9115V61.7416H58.2301V60.6507Z" fill="#D9C01B"/>
<path d="M47.4434 56.2052H48.61V66.1188H47.4434V56.2052ZM48.1188 65.0211H52.7583V66.1188H48.1188V65.0211ZM48.1188 60.6507H52.2125V61.7416H48.1188V60.6507ZM48.1188 56.2052H52.7583V57.2961H48.1188V56.2052Z" fill="#D9C01B"/>
<path d="M38.4851 65.0211H38.6625C39.0263 65.0211 39.3038 64.8166 39.4948 64.4075C39.6904 63.9984 39.7882 63.4143 39.7882 62.6552V56.2052H40.9549V62.7575C40.9549 63.412 40.8753 63.9666 40.7161 64.4211C40.5569 64.8711 40.3204 65.2166 40.0065 65.4575C39.6927 65.6938 39.3015 65.812 38.833 65.812H38.4851V65.0211ZM38.3418 65.0211H39.5085V68.1029H38.3418V65.0211ZM38.3418 65.0211H45.3419V66.1188H38.3418V65.0211ZM44.8302 65.0211H45.9969V68.1029H44.8302V65.0211ZM43.7522 56.2052H44.9189V66.1188H43.7522V56.2052ZM40.6547 56.2052H44.3322V57.2961H40.6547V56.2052Z" fill="#D9C01B"/>
</svg>
