<svg width="24" height="24" viewBox="0 0 24 24" fill="none" xmlns="http://www.w3.org/2000/svg">
<path d="M21.25 12H8.895M4.534 12H2.75M4.534 12C4.534 11.4218 4.76368 10.8673 5.17251 10.4585C5.58134 10.0497 6.13583 9.82001 6.714 9.82001C7.29217 9.82001 7.84666 10.0497 8.25549 10.4585C8.66432 10.8673 8.894 11.4218 8.894 12C8.894 12.5782 8.66432 13.1327 8.25549 13.5415C7.84666 13.9503 7.29217 14.18 6.714 14.18C6.13583 14.18 5.58134 13.9503 5.17251 13.5415C4.76368 13.1327 4.534 12.5782 4.534 12ZM21.25 18.607H15.502M15.502 18.607C15.502 19.1853 15.2718 19.7404 14.8628 20.1494C14.4539 20.5583 13.8993 20.788 13.321 20.788C12.7428 20.788 12.1883 20.5573 11.7795 20.1485C11.3707 19.7397 11.141 19.1852 11.141 18.607M15.502 18.607C15.502 18.0287 15.2718 17.4746 14.8628 17.0657C14.4539 16.6567 13.8993 16.427 13.321 16.427C12.7428 16.427 12.1883 16.6567 11.7795 17.0655C11.3707 17.4743 11.141 18.0288 11.141 18.607M11.141 18.607H2.75M21.25 5.39301H18.145M13.784 5.39301H2.75M13.784 5.39301C13.784 4.81484 14.0137 4.26035 14.4225 3.85152C14.8313 3.44269 15.3858 3.21301 15.964 3.21301C16.2503 3.21301 16.5338 3.2694 16.7983 3.37896C17.0627 3.48851 17.3031 3.64909 17.5055 3.85152C17.7079 4.05395 17.8685 4.29427 17.9781 4.55876C18.0876 4.82325 18.144 5.10673 18.144 5.39301C18.144 5.67929 18.0876 5.96277 17.9781 6.22726C17.8685 6.49175 17.7079 6.73207 17.5055 6.93451C17.3031 7.13694 17.0627 7.29751 16.7983 7.40707C16.5338 7.51663 16.2503 7.57301 15.964 7.57301C15.3858 7.57301 14.8313 7.34333 14.4225 6.93451C14.0137 6.52568 13.784 5.97118 13.784 5.39301Z" stroke="#1D1D1D" stroke-width="1.5" stroke-miterlimit="10" stroke-linecap="round"/>
</svg>
