<svg width="14" height="14" viewBox="0 0 14 14" fill="none" xmlns="http://www.w3.org/2000/svg">
<path d="M4.70434 8.00004H2.12101C1.77874 8.00198 1.45114 8.1393 1.20981 8.38202C0.968467 8.62473 0.833002 8.9531 0.833008 9.29537V11.8787C0.833008 12.2203 0.968707 12.5479 1.21025 12.7895C1.4518 13.031 1.77941 13.1667 2.12101 13.1667H4.70434C5.04656 13.1667 5.37485 13.0312 5.61746 12.7899C5.86007 12.5485 5.99725 12.2209 5.99901 11.8787V9.29537C5.99901 8.95201 5.86261 8.6227 5.61981 8.37991C5.37701 8.13711 5.04771 8.00071 4.70434 8.00071M4.70434 0.833374H2.12101C1.95187 0.833374 1.78438 0.866689 1.62811 0.931417C1.47184 0.996145 1.32986 1.09102 1.21025 1.21062C1.09065 1.33022 0.995779 1.47221 0.931051 1.62848C0.866323 1.78475 0.833008 1.95223 0.833008 2.12137V4.70471C0.833003 5.04692 0.96849 5.37522 1.20985 5.61783C1.4512 5.86043 1.7788 5.99761 2.12101 5.99937H4.70434C5.04771 5.99937 5.37701 5.86297 5.61981 5.62017C5.86261 5.37738 5.99901 5.04807 5.99901 4.70471V2.12137C5.99725 1.77916 5.86007 1.45157 5.61746 1.21021C5.37485 0.968856 5.04656 0.833369 4.70434 0.833374ZM11.8783 0.833374H9.29501C8.95279 0.833369 8.6245 0.968856 8.38189 1.21021C8.13928 1.45157 8.0021 1.77916 8.00034 2.12137V4.70471C8.00052 5.04802 8.13698 5.37722 8.37973 5.61998C8.62249 5.86274 8.95169 5.9992 9.29501 5.99937H11.8783C12.2206 5.99761 12.5481 5.86043 12.7895 5.61783C13.0309 5.37522 13.1663 5.04692 13.1663 4.70471V2.12137C13.1663 1.77978 13.0306 1.45217 12.7891 1.21062C12.5475 0.969074 12.2199 0.833374 11.8783 0.833374ZM10.583 8.00004C9.89786 8.00004 9.24078 8.27221 8.75631 8.75668C8.27185 9.24115 7.99967 9.89823 7.99967 10.5834C7.99967 11.2685 8.27185 11.9256 8.75631 12.4101C9.24078 12.8945 9.89786 13.1667 10.583 13.1667C11.2681 13.1667 11.9252 12.8945 12.4097 12.4101C12.8942 11.9256 13.1663 11.2685 13.1663 10.5834C13.1663 9.89823 12.8942 9.24115 12.4097 8.75668C11.9252 8.27221 11.2681 8.00004 10.583 8.00004Z" stroke="" stroke-width="1.5" stroke-linecap="round" stroke-linejoin="round"/>
</svg>
