<svg width="16" height="16" viewBox="0 0 16 16" fill="none" xmlns="http://www.w3.org/2000/svg">
<path d="M11.9997 4.7735C11.9597 4.76683 11.9131 4.76683 11.8731 4.7735C10.9531 4.74017 10.2197 3.98683 10.2197 3.0535C10.2197 2.10016 10.9864 1.3335 11.9397 1.3335C12.8931 1.3335 13.6597 2.10683 13.6597 3.0535C13.6531 3.98683 12.9197 4.74017 11.9997 4.7735Z" stroke="" stroke-width="1.5" stroke-linecap="round" stroke-linejoin="round"/>
<path d="M11.313 9.62694C12.2263 9.78027 13.233 9.62027 13.9396 9.14694C14.8796 8.52027 14.8796 7.4936 13.9396 6.86694C13.2263 6.3936 12.2063 6.2336 11.293 6.3936" stroke="" stroke-width="1.5" stroke-linecap="round" stroke-linejoin="round"/>
<path d="M3.98031 4.7735C4.02031 4.76683 4.06698 4.76683 4.10698 4.7735C5.02698 4.74017 5.76031 3.98683 5.76031 3.0535C5.76031 2.10016 4.99365 1.3335 4.04031 1.3335C3.08698 1.3335 2.32031 2.10683 2.32031 3.0535C2.32698 3.98683 3.06031 4.74017 3.98031 4.7735Z" stroke="" stroke-width="1.5" stroke-linecap="round" stroke-linejoin="round"/>
<path d="M4.66663 9.62694C3.75329 9.78027 2.74663 9.62027 2.03996 9.14694C1.09996 8.52027 1.09996 7.4936 2.03996 6.86694C2.75329 6.3936 3.77329 6.2336 4.68663 6.3936" stroke="" stroke-width="1.5" stroke-linecap="round" stroke-linejoin="round"/>
<path d="M8.0007 9.75348C7.9607 9.74681 7.91404 9.74681 7.87404 9.75348C6.95404 9.72015 6.2207 8.96681 6.2207 8.03348C6.2207 7.08014 6.98737 6.31348 7.9407 6.31348C8.89403 6.31348 9.6607 7.08681 9.6607 8.03348C9.65404 8.96681 8.9207 9.72681 8.0007 9.75348Z" stroke="" stroke-width="1.5" stroke-linecap="round" stroke-linejoin="round"/>
<path d="M6.06047 11.8532C5.12047 12.4799 5.12047 13.5066 6.06047 14.1332C7.12714 14.8466 8.8738 14.8466 9.94047 14.1332C10.8805 13.5066 10.8805 12.4799 9.94047 11.8532C8.88047 11.1466 7.12714 11.1466 6.06047 11.8532Z" stroke="" stroke-width="1.5" stroke-linecap="round" stroke-linejoin="round"/>
</svg>
