<svg width="24" height="26" viewBox="0 0 24 26" fill="none" xmlns="http://www.w3.org/2000/svg">
<path d="M11.9238 13.0002C15.1454 13.0002 17.7571 10.3885 17.7571 7.16683C17.7571 3.94517 15.1454 1.3335 11.9238 1.3335C8.70213 1.3335 6.09045 3.94517 6.09045 7.16683C6.09045 10.3885 8.70213 13.0002 11.9238 13.0002Z" stroke-width="2"/>
<path d="M17.7571 15.3335H18.1678C19.0207 15.3337 19.8442 15.6454 20.4836 16.21C21.1229 16.7746 21.534 17.5532 21.6398 18.3995L22.096 22.0442C22.137 22.3725 22.1077 22.7058 22.0101 23.022C21.9125 23.3381 21.7487 23.6299 21.5297 23.8779C21.3107 24.126 21.0414 24.3246 20.7398 24.4606C20.4382 24.5966 20.111 24.6669 19.7801 24.6668H4.06748C3.7366 24.6669 3.40948 24.5966 3.10784 24.4606C2.8062 24.3246 2.53694 24.126 2.31792 23.8779C2.09891 23.6299 1.93515 23.3381 1.83752 23.022C1.73989 22.7058 1.71062 22.3725 1.75165 22.0442L2.20665 18.3995C2.31246 17.5528 2.72397 16.7738 3.36379 16.2092C4.00361 15.6446 4.82766 15.3332 5.68098 15.3335H6.09048" stroke-width="2" stroke-linecap="round" stroke-linejoin="round"/>
</svg>
