<svg xmlns="http://www.w3.org/2000/svg" width="20" height="20" fill="none"><path fill="#1E1E1E" d="m17.228 16.075-2.829-2.825a6.608 6.608 0 0 0 1.406-4.083c0-1.319-.39-2.608-1.121-3.704a6.644 6.644 0 0 0-10.239-1.01 6.67 6.67 0 0 0-1.443 7.265 6.664 6.664 0 0 0 2.451 2.992 6.647 6.647 0 0 0 3.697 1.123 6.58 6.58 0 0 0 4.077-1.408l2.82 2.833a.831.831 0 0 0 1.18 0 .832.832 0 0 0 0-1.183ZM4.159 9.167a5.006 5.006 0 0 1 3.081-4.62 4.983 4.983 0 0 1 5.44 1.084 5.003 5.003 0 0 1-3.53 8.536 4.987 4.987 0 0 1-3.529-1.465A5.004 5.004 0 0 1 4.16 9.167Z"/></svg>