<svg width="18" height="18" viewBox="0 0 18 18" fill="none" xmlns="http://www.w3.org/2000/svg">
<path d="M9.19517 1H8.80483C8.33425 1 7.88295 1.16857 7.5502 1.46863C7.21745 1.76869 7.03051 2.17565 7.03051 2.6V2.744C7.03019 3.02458 6.94806 3.30015 6.79235 3.54307C6.63663 3.78599 6.41282 3.98771 6.14336 4.128L5.76188 4.328C5.49215 4.46843 5.18618 4.54236 4.87472 4.54236C4.56327 4.54236 4.2573 4.46843 3.98757 4.328L3.8545 4.264C3.44735 4.05221 2.96365 3.99476 2.50957 4.10425C2.05549 4.21374 1.66815 4.48123 1.43256 4.848L1.23739 5.152C1.00252 5.51915 0.938807 5.95533 1.06023 6.3648C1.18165 6.77427 1.47828 7.12356 1.88501 7.336L2.01808 7.416C2.28625 7.55561 2.50923 7.75607 2.66486 7.99746C2.8205 8.23886 2.90337 8.51278 2.90524 8.792V9.2C2.90648 9.48194 2.82508 9.75916 2.66929 10.0036C2.5135 10.2481 2.28885 10.451 2.01808 10.592L1.88501 10.664C1.47828 10.8764 1.18165 11.2257 1.06023 11.6352C0.938807 12.0447 1.00252 12.4809 1.23739 12.848L1.43256 13.152C1.66815 13.5188 2.05549 13.7863 2.50957 13.8958C2.96365 14.0052 3.44735 13.9478 3.8545 13.736L3.98757 13.672C4.2573 13.5316 4.56327 13.4576 4.87472 13.4576C5.18618 13.4576 5.49215 13.5316 5.76188 13.672L6.14336 13.872C6.41282 14.0123 6.63663 14.214 6.79235 14.4569C6.94806 14.6998 7.03019 14.9754 7.03051 15.256V15.4C7.03051 15.8243 7.21745 16.2313 7.5502 16.5314C7.88295 16.8314 8.33425 17 8.80483 17H9.19517C9.66575 17 10.1171 16.8314 10.4498 16.5314C10.7825 16.2313 10.9695 15.8243 10.9695 15.4V15.256C10.9698 14.9754 11.0519 14.6998 11.2077 14.4569C11.3634 14.214 11.5872 14.0123 11.8566 13.872L12.2381 13.672C12.5078 13.5316 12.8138 13.4576 13.1253 13.4576C13.4367 13.4576 13.7427 13.5316 14.0124 13.672L14.1455 13.736C14.5527 13.9478 15.0364 14.0052 15.4904 13.8958C15.9445 13.7863 16.3319 13.5188 16.5674 13.152L16.7626 12.84C16.9975 12.4729 17.0612 12.0367 16.9398 11.6272C16.8184 11.2177 16.5217 10.8684 16.115 10.656L15.9819 10.592C15.7112 10.451 15.4865 10.2481 15.3307 10.0036C15.1749 9.75916 15.0935 9.48194 15.0948 9.2V8.8C15.0935 8.51806 15.1749 8.24084 15.3307 7.99639C15.4865 7.75195 15.7112 7.54897 15.9819 7.408L16.115 7.336C16.5217 7.12356 16.8184 6.77427 16.9398 6.3648C17.0612 5.95533 16.9975 5.51915 16.7626 5.152L16.5674 4.848C16.3319 4.48123 15.9445 4.21374 15.4904 4.10425C15.0364 3.99476 14.5527 4.05221 14.1455 4.264L14.0124 4.328C13.7427 4.46843 13.4367 4.54236 13.1253 4.54236C12.8138 4.54236 12.5078 4.46843 12.2381 4.328L11.8566 4.128C11.5872 3.98771 11.3634 3.78599 11.2077 3.54307C11.0519 3.30015 10.9698 3.02458 10.9695 2.744V2.6C10.9695 2.17565 10.7825 1.76869 10.4498 1.46863C10.1171 1.16857 9.66575 1 9.19517 1Z" stroke="" stroke-width="1.5" stroke-linecap="round" stroke-linejoin="round"/>
<path d="M9 11.4C10.4699 11.4 11.6615 10.3255 11.6615 9C11.6615 7.67452 10.4699 6.6 9 6.6C7.53011 6.6 6.33853 7.67452 6.33853 9C6.33853 10.3255 7.53011 11.4 9 11.4Z" stroke="" stroke-width="1.5" stroke-linecap="round" stroke-linejoin="round"/>
</svg>
