<svg width="16" height="16" viewBox="0 0 16 16" fill="none" xmlns="http://www.w3.org/2000/svg">
<path fill-rule="evenodd" clip-rule="evenodd" d="M10.7431 1.07621C10.0997 1.07242 9.48084 1.32234 9.02054 1.77179L2.39554 8.39679C2.34099 8.45163 2.29991 8.51838 2.27554 8.59179L1.02554 12.3418C0.997299 12.4267 0.992377 12.5177 1.01128 12.6052C1.03019 12.6926 1.07223 12.7734 1.13301 12.8391C1.1938 12.9048 1.27111 12.953 1.35686 12.9786C1.44262 13.0042 1.53368 13.0064 1.62054 12.9848L5.62054 11.9848C5.70865 11.9631 5.7892 11.9178 5.85354 11.8538L11.4995 6.20679L11.5855 6.29279C11.773 6.48032 11.8783 6.73463 11.8783 6.99979C11.8783 7.26496 11.773 7.51926 11.5855 7.70679L10.1455 9.14679C10.0545 9.24109 10.0041 9.36739 10.0052 9.49849C10.0063 9.62959 10.0589 9.755 10.1516 9.8477C10.2443 9.9404 10.3697 9.99299 10.5008 9.99413C10.6319 9.99527 10.7582 9.94487 10.8525 9.85379L12.2925 8.41379C12.6675 8.03873 12.8781 7.53012 12.8781 6.99979C12.8781 6.46946 12.6675 5.96085 12.2925 5.58579L12.2065 5.49979L12.4785 5.22879C12.9279 4.76836 13.1776 4.14938 13.1736 3.50606C13.1696 2.86273 12.9123 2.24689 12.4573 1.79205C12.0023 1.3372 11.3864 1.08001 10.7431 1.07621ZM10.7495 2.05633C11.1324 2.05633 11.4996 2.20827 11.7705 2.47879C12.0414 2.74976 12.1935 3.11719 12.1935 3.50029C12.1935 3.8834 12.0414 4.25082 11.7705 4.52179L5.24354 11.0488L2.26154 11.7938L3.18654 9.01979L9.72854 2.47879C9.99946 2.20827 10.3667 2.05633 10.7495 2.05633Z" fill=""/>
<path d="M2.11198 13.8928C2.75898 14.4338 3.73198 14.9998 4.96698 14.9998C5.64498 14.9998 6.25498 14.7268 6.78498 14.3788C7.31398 14.0318 7.80298 13.5818 8.23398 13.1768L8.33398 13.0838C8.73698 12.7048 9.07898 12.3838 9.39198 12.1718C9.74198 11.9328 9.90498 11.9358 9.98698 11.9658C10.083 12.0038 10.163 12.0678 10.253 12.2358C10.353 12.4258 10.439 12.7028 10.549 13.1258C10.6264 13.4355 10.764 13.7271 10.954 13.9838C11.149 14.2358 11.464 14.5008 11.9 14.5008C12.351 14.5008 12.782 14.2528 13.092 14.0408C13.2937 13.9037 13.5132 13.7303 13.691 13.5898L13.71 13.5748C13.7197 13.5671 13.7292 13.5595 13.7386 13.552C13.8145 13.4915 13.8805 13.439 13.933 13.4008C14.162 13.2288 14.353 13.1188 14.483 13.0548C14.5401 13.0255 14.5985 12.9988 14.658 12.9748L14.662 12.9728C14.786 12.929 14.8879 12.8381 14.9454 12.7198C15.0029 12.6015 15.0114 12.4653 14.9692 12.3407C14.927 12.2161 14.8374 12.1132 14.7198 12.0542C14.6022 11.9953 14.4661 11.9851 14.341 12.0258L14.5 12.4998L14.34 12.0268H14.339L14.336 12.0278L14.329 12.0298L14.309 12.0378C14.2143 12.0744 14.1215 12.1158 14.031 12.1618C13.854 12.2508 13.613 12.3908 13.334 12.5998C13.2325 12.6751 13.1367 12.7514 13.042 12.8268L13.032 12.8348C12.874 12.9618 12.715 13.0878 12.53 13.2138C12.231 13.4178 12.022 13.4998 11.9 13.4998C11.897 13.4998 11.886 13.4998 11.861 13.4848C11.8167 13.4544 11.7782 13.4165 11.747 13.3728C11.65 13.2488 11.567 13.0648 11.517 12.8748C11.409 12.4578 11.298 12.0758 11.137 11.7698C10.966 11.4438 10.722 11.1778 10.346 11.0338C9.77898 10.8148 9.23698 11.0668 8.82898 11.3448C8.45392 11.5991 8.06247 11.9661 7.68397 12.3211L7.66298 12.3408L7.54998 12.4478C7.11398 12.8558 6.68298 13.2498 6.23598 13.5428C5.78998 13.8358 5.37198 13.9998 4.96598 13.9998C4.36898 13.9998 3.84198 13.8218 3.39598 13.5728L2.11198 13.8928Z" fill=""/>
</svg>
