<svg width="21" height="22" viewBox="0 0 21 22" fill="none" xmlns="http://www.w3.org/2000/svg">
<path d="M10.5 1V7M10.5 7L12.5 5M10.5 7L8.5 5M3.5 11V7C3.5 4.99 3.5 3.33 6.5 3.04M17.5 11V7C17.5 4.99 17.5 3.33 14.5 3.04M5.5 11C1.5 11 1.5 12.79 1.5 15V16C1.5 18.76 1.5 21 6.5 21H14.5C18.5 21 19.5 18.76 19.5 16V15C19.5 12.79 19.5 11 15.5 11C14.5 11 14.22 11.21 13.7 11.6L12.68 12.68C11.5 13.94 9.5 13.94 8.31 12.68L7.3 11.6C6.78 11.21 6.5 11 5.5 11Z" stroke-width="1.5" stroke-miterlimit="10" stroke-linecap="round" stroke-linejoin="round"/>
</svg>
