<svg width="22" height="22" viewBox="0 0 22 22" fill="none" xmlns="http://www.w3.org/2000/svg">
<path d="M5.472 17.16C4.65067 17.16 3.91467 16.9787 3.264 16.616C2.624 16.2427 2.11733 15.736 1.744 15.096C1.37067 14.4453 1.184 13.7093 1.184 12.888V5.896H2.688V12.856C2.688 13.4427 2.81067 13.9493 3.056 14.376C3.30133 14.8027 3.632 15.1333 4.048 15.368C4.47467 15.6027 4.94933 15.72 5.472 15.72C6.016 15.72 6.49067 15.6027 6.896 15.368C7.312 15.1333 7.63733 14.8027 7.872 14.376C8.11733 13.9493 8.24 13.448 8.24 12.872V5.896H9.76V12.904C9.76 13.7253 9.57333 14.456 9.2 15.096C8.82667 15.736 8.32 16.2427 7.68 16.616C7.04 16.9787 6.304 17.16 5.472 17.16ZM11.0741 17L15.6181 5.896H16.7061L21.2341 17H19.6021L15.8741 7.608H16.4341L12.6741 17H11.0741ZM13.2341 14.488V13.176H19.0741V14.488H13.2341Z" fill="#1E1E1E"/>
</svg>
