<svg width="23" height="13" viewBox="0 0 23 13" fill="none" xmlns="http://www.w3.org/2000/svg">
<path d="M7.48295 0.363636H9.59091V7.96591C9.59091 8.79924 9.39394 9.5322 9 10.1648C8.60985 10.7973 8.06061 11.2917 7.35227 11.6477C6.64394 12 5.81629 12.1761 4.86932 12.1761C3.91856 12.1761 3.08902 12 2.38068 11.6477C1.67235 11.2917 1.12311 10.7973 0.732955 10.1648C0.342803 9.5322 0.147727 8.79924 0.147727 7.96591V0.363636H2.25568V7.78977C2.25568 8.27462 2.36174 8.70644 2.57386 9.08523C2.78977 9.46402 3.0928 9.76136 3.48295 9.97727C3.87311 10.1894 4.33523 10.2955 4.86932 10.2955C5.40341 10.2955 5.86553 10.1894 6.25568 9.97727C6.64962 9.76136 6.95265 9.46402 7.16477 9.08523C7.37689 8.70644 7.48295 8.27462 7.48295 7.78977V0.363636ZM13.5364 12H11.2864L15.383 0.363636H17.9853L22.0876 12H19.8376L16.7296 2.75H16.6387L13.5364 12ZM13.6103 7.4375H19.7466V9.13068H13.6103V7.4375Z" fill="white"/>
</svg>
